ffmpeg started on 2026-01-16 at 16:33:55
Report written to "D:\Convert\FFMetrics\reports\psnr_report-6.txt"
Log level: 32
Command line:
ffmpeg -hide_banner -nostdin -r 24000/1001 -i "F:\\Convert\\files\\[DC] Make Heroine ga Oosugiru - 07_Telegram_HEVC(HB-3).mkv" -r 24000/1001 -i "F:\\Convert\\files\\[DC] Make Heroine ga Oosugiru - 07_Telegram.mp4" -lavfi "[0:v]settb=AVTB,setpts=PTS-STARTPTS,format=pix_fmts=yuv420p10le,fps=24000/1001,scale=1920:1080:flags=lanczos:param0=3:out_range=limited:out_color_matrix=bt709:out_chroma_loc=left,setsar=1/1,setdar=(1920/1080)*(1/1),colorspace=format=yuv420p10:range=tv:primaries=bt709:trc=bt709:space=bt709:fast=0[main];[1:v]settb=AVTB,setpts=PTS-STARTPTS,format=pix_fmts=yuv420p,fps=24000/1001,scale=1920:1080:flags=lanczos:param0=3:out_range=limited:out_color_matrix=bt709:out_chroma_loc=left,setsar=1.000,setdar=1.778,colorspace=format=yuv420p:range=tv:primaries=bt709:trc=bt709:space=bt709:fast=0[ref];[main][ref]psnr=eof_action=endall:stats_file='D\\:/Convert/FFMetrics/logs/psnr_logfile-6.txt'" -f null -
Input #0, matroska,webm, from 'F:\Convert\files\[DC] Make Heroine ga Oosugiru - 07_Telegram_HEVC(HB-3).mkv':
  Metadata:
    creation_time   : 2026-01-16T07:20:09.000000Z
    ENCODER         : Lavf61.7.100
  Duration: 00:24:06.81, start: -0.021000, bitrate: 971 kb/s
  Stream #0:0: Video: hevc (Main 10), yuv420p10le(tv, bt709), 1920x1080 [SAR 1:1 DAR 16:9], 23.98 fps, 23.98 tbr, 1k tbn (default)
      Metadata:
        BPS             : 774365
        DURATION        : 00:24:06.569708333
        NUMBER_OF_FRAMES: 34683
        NUMBER_OF_BYTES : 140021643
        _STATISTICS_WRITING_APP: mkvpropedit v94.0 ('Initiate') 64-bit
        _STATISTICS_WRITING_DATE_UTC: 2026-01-16 13:33:55
        _STATISTICS_TAGS: BPS DURATION NUMBER_OF_FRAMES NUMBER_OF_BYTES
  Stream #0:1: Audio: aac (LC), 48000 Hz, stereo, fltp (default)
      Metadata:
        title           : Stereo
        BPS             : 193190
        DURATION        : 00:24:06.784000000
        NUMBER_OF_FRAMES: 67819
        NUMBER_OF_BYTES : 34938166
        _STATISTICS_WRITING_APP: mkvpropedit v94.0 ('Initiate') 64-bit
        _STATISTICS_WRITING_DATE_UTC: 2026-01-16 13:33:55
        _STATISTICS_TAGS: BPS DURATION NUMBER_OF_FRAMES NUMBER_OF_BYTES
Input #1, mov,mp4,m4a,3gp,3g2,mj2, from 'F:\Convert\files\[DC] Make Heroine ga Oosugiru - 07_Telegram.mp4':
  Metadata:
    major_brand     : isom
    minor_version   : 512
    compatible_brands: isomiso2avc1mp41
    encoder         : Lavf60.16.100
  Duration: 00:24:06.74, start: 0.000000, bitrate: 3764 kb/s
  Stream #1:0[0x1](und): Video: h264 (High) (avc1 / 0x31637661), yuv420p(tv, bt709, progressive), 1920x1080 [SAR 1:1 DAR 16:9], 3616 kb/s, 23.98 fps, 23.98 tbr, 24k tbn (default)
      Metadata:
        handler_name    : VideoHandler
        vendor_id       : [0][0][0][0]
        encoder         : Lavc60.31.102 h264_qsv
  Stream #1:1[0x2](und): Audio: aac (HE-AACv2) (mp4a / 0x6134706D), 48000 Hz, stereo, fltp, 144 kb/s (default)
      Metadata:
        handler_name    : SoundHandler
        vendor_id       : [0][0][0][0]
Stream mapping:
  Stream #0:0 (hevc) -> settb:default
  Stream #1:0 (h264) -> settb:default
  psnr:default -> Stream #0:0 (wrapped_avframe)
  Stream #0:1 -> #0:1 (aac (native) -> pcm_s16le (native))
Output #0, null, to 'pipe:':
  Metadata:
    encoder         : Lavf61.7.100
  Stream #0:0: Video: wrapped_avframe, yuv420p10le(tv, bt709, progressive), 1920x1080 [SAR 1:1 DAR 16:9], q=2-31, 200 kb/s, 23.98 fps, 23.98 tbn
      Metadata:
        encoder         : Lavc61.19.100 wrapped_avframe
  Stream #0:1: Audio: pcm_s16le, 48000 Hz, stereo, s16, 1536 kb/s (default)
      Metadata:
        title           : Stereo
        BPS             : 193190
        DURATION        : 00:24:06.784000000
        NUMBER_OF_FRAMES: 67819
        NUMBER_OF_BYTES : 34938166
        _STATISTICS_WRITING_APP: mkvpropedit v94.0 ('Initiate') 64-bit
        _STATISTICS_WRITING_DATE_UTC: 2026-01-16 13:33:55
        _STATISTICS_TAGS: BPS DURATION NUMBER_OF_FRAMES NUMBER_OF_BYTES
        encoder         : Lavc61.19.100 pcm_s16le
frame=  142 fps=0.0 q=-0.0 size=N/A time=00:00:05.92 bitrate=N/A speed=11.2x    frame=  331 fps=318 q=-0.0 size=N/A time=00:00:13.80 bitrate=N/A speed=13.3x    frame=  527 fps=339 q=-0.0 size=N/A time=00:00:21.98 bitrate=N/A speed=14.2x    frame=  717 fps=346 q=-0.0 size=N/A time=00:00:29.90 bitrate=N/A speed=14.4x    frame=  890 fps=344 q=-0.0 size=N/A time=00:00:37.12 bitrate=N/A speed=14.4x    frame= 1027 fps=332 q=-0.0 size=N/A time=00:00:42.83 bitrate=N/A speed=13.8x    frame= 1190 fps=328 q=-0.0 size=N/A time=00:00:49.63 bitrate=N/A speed=13.7x    frame= 1348 fps=326 q=-0.0 size=N/A time=00:00:56.22 bitrate=N/A speed=13.6x    frame= 1505 fps=324 q=-0.0 size=N/A time=00:01:02.77 bitrate=N/A speed=13.5x    frame= 1646 fps=319 q=-0.0 size=N/A time=00:01:08.65 bitrate=N/A speed=13.3x    frame= 1813 fps=319 q=-0.0 size=N/A time=00:01:15.61 bitrate=N/A speed=13.3x    frame= 1967 fps=318 q=-0.0 size=N/A time=00:01:22.04 bitrate=N/A speed=13.2x    frame= 2087 fps=311 q=-0.0 size=N/A time=00:01:27.04 bitrate=N/A speed=  13x    frame= 2226 fps=308 q=-0.0 size=N/A time=00:01:32.84 bitrate=N/A speed=12.9x    frame= 2378 fps=307 q=-0.0 size=N/A time=00:01:39.18 bitrate=N/A speed=12.8x    frame= 2507 fps=304 q=-0.0 size=N/A time=00:01:44.56 bitrate=N/A speed=12.7x    frame= 2661 fps=303 q=-0.0 size=N/A time=00:01:50.98 bitrate=N/A speed=12.7x    frame= 2840 fps=306 q=-0.0 size=N/A time=00:01:58.45 bitrate=N/A speed=12.8x    frame= 3021 fps=308 q=-0.0 size=N/A time=00:02:06.00 bitrate=N/A speed=12.8x    frame= 3213 fps=311 q=-0.0 size=N/A time=00:02:14.00 bitrate=N/A speed=  13x    frame= 3404 fps=314 q=-0.0 size=N/A time=00:02:21.97 bitrate=N/A speed=13.1x    frame= 3598 fps=317 q=-0.0 size=N/A time=00:02:30.06 bitrate=N/A speed=13.2x    frame= 3791 fps=320 q=-0.0 size=N/A time=00:02:38.11 bitrate=N/A speed=13.3x    frame= 3992 fps=322 q=-0.0 size=N/A time=00:02:46.49 bitrate=N/A speed=13.4x    frame= 4182 fps=324 q=-0.0 size=N/A time=00:02:54.42 bitrate=N/A speed=13.5x    frame= 4371 fps=326 q=-0.0 size=N/A time=00:03:02.30 bitrate=N/A speed=13.6x    frame= 4572 fps=328 q=-0.0 size=N/A time=00:03:10.69 bitrate=N/A speed=13.7x    frame= 4763 fps=330 q=-0.0 size=N/A time=00:03:18.65 bitrate=N/A speed=13.8x    frame= 4950 fps=331 q=-0.0 size=N/A time=00:03:26.45 bitrate=N/A speed=13.8x    frame= 5131 fps=332 q=-0.0 size=N/A time=00:03:34.00 bitrate=N/A speed=13.8x    frame= 5322 fps=333 q=-0.0 size=N/A time=00:03:41.97 bitrate=N/A speed=13.9x    frame= 5514 fps=334 q=-0.0 size=N/A time=00:03:49.97 bitrate=N/A speed=13.9x    frame= 5710 fps=335 q=-0.0 size=N/A time=00:03:58.15 bitrate=N/A speed=  14x    frame= 5904 fps=337 q=-0.0 size=N/A time=00:04:06.24 bitrate=N/A speed=  14x    frame= 6094 fps=338 q=-0.0 size=N/A time=00:04:14.17 bitrate=N/A speed=14.1x    frame= 6293 fps=339 q=-0.0 size=N/A time=00:04:22.47 bitrate=N/A speed=14.1x    frame= 6481 fps=340 q=-0.0 size=N/A time=00:04:30.31 bitrate=N/A speed=14.2x    frame= 6673 fps=341 q=-0.0 size=N/A time=00:04:38.31 bitrate=N/A speed=14.2x    frame= 6871 fps=341 q=-0.0 size=N/A time=00:04:46.57 bitrate=N/A speed=14.2x    frame= 7064 fps=342 q=-0.0 size=N/A time=00:04:54.62 bitrate=N/A speed=14.3x    frame= 7250 fps=343 q=-0.0 size=N/A time=00:05:02.38 bitrate=N/A speed=14.3x    frame= 7443 fps=344 q=-0.0 size=N/A time=00:05:10.43 bitrate=N/A speed=14.3x    frame= 7636 fps=344 q=-0.0 size=N/A time=00:05:18.48 bitrate=N/A speed=14.4x    frame= 7823 fps=345 q=-0.0 size=N/A time=00:05:26.28 bitrate=N/A speed=14.4x    frame= 8012 fps=345 q=-0.0 size=N/A time=00:05:34.16 bitrate=N/A speed=14.4x    frame= 8202 fps=346 q=-0.0 size=N/A time=00:05:42.09 bitrate=N/A speed=14.4x    frame= 8391 fps=346 q=-0.0 size=N/A time=00:05:49.97 bitrate=N/A speed=14.4x    frame= 8581 fps=347 q=-0.0 size=N/A time=00:05:57.89 bitrate=N/A speed=14.5x    frame= 8779 fps=347 q=-0.0 size=N/A time=00:06:06.15 bitrate=N/A speed=14.5x    frame= 8967 fps=348 q=-0.0 size=N/A time=00:06:13.99 bitrate=N/A speed=14.5x    frame= 9161 fps=348 q=-0.0 size=N/A time=00:06:22.09 bitrate=N/A speed=14.5x    frame= 9356 fps=349 q=-0.0 size=N/A time=00:06:30.22 bitrate=N/A speed=14.5x    frame= 9545 fps=349 q=-0.0 size=N/A time=00:06:38.10 bitrate=N/A speed=14.6x    frame= 9739 fps=350 q=-0.0 size=N/A time=00:06:46.19 bitrate=N/A speed=14.6x    frame= 9929 fps=350 q=-0.0 size=N/A time=00:06:54.12 bitrate=N/A speed=14.6x    frame=10120 fps=350 q=-0.0 size=N/A time=00:07:02.08 bitrate=N/A speed=14.6x    frame=10316 fps=351 q=-0.0 size=N/A time=00:07:10.26 bitrate=N/A speed=14.6x    frame=10505 fps=351 q=-0.0 size=N/A time=00:07:18.14 bitrate=N/A speed=14.6x    frame=10690 fps=351 q=-0.0 size=N/A time=00:07:25.86 bitrate=N/A speed=14.7x    frame=10889 fps=352 q=-0.0 size=N/A time=00:07:34.16 bitrate=N/A speed=14.7x    frame=11079 fps=352 q=-0.0 size=N/A time=00:07:42.08 bitrate=N/A speed=14.7x    frame=11260 fps=352 q=-0.0 size=N/A time=00:07:49.63 bitrate=N/A speed=14.7x    frame=11450 fps=352 q=-0.0 size=N/A time=00:07:57.56 bitrate=N/A speed=14.7x    frame=11643 fps=353 q=-0.0 size=N/A time=00:08:05.61 bitrate=N/A speed=14.7x    frame=11836 fps=353 q=-0.0 size=N/A time=00:08:13.65 bitrate=N/A speed=14.7x    frame=12026 fps=353 q=-0.0 size=N/A time=00:08:21.58 bitrate=N/A speed=14.7x    frame=12224 fps=354 q=-0.0 size=N/A time=00:08:29.84 bitrate=N/A speed=14.8x    frame=12411 fps=354 q=-0.0 size=N/A time=00:08:37.64 bitrate=N/A speed=14.8x    frame=12598 fps=354 q=-0.0 size=N/A time=00:08:45.44 bitrate=N/A speed=14.8x    frame=12798 fps=354 q=-0.0 size=N/A time=00:08:53.78 bitrate=N/A speed=14.8x    frame=12993 fps=355 q=-0.0 size=N/A time=00:09:01.91 bitrate=N/A speed=14.8x    frame=13181 fps=355 q=-0.0 size=N/A time=00:09:09.75 bitrate=N/A speed=14.8x    frame=13374 fps=355 q=-0.0 size=N/A time=00:09:17.80 bitrate=N/A speed=14.8x    frame=13567 fps=355 q=-0.0 size=N/A time=00:09:25.85 bitrate=N/A speed=14.8x    frame=13755 fps=355 q=-0.0 size=N/A time=00:09:33.69 bitrate=N/A speed=14.8x    frame=13947 fps=356 q=-0.0 size=N/A time=00:09:41.70 bitrate=N/A speed=14.8x    frame=14123 fps=355 q=-0.0 size=N/A time=00:09:49.04 bitrate=N/A speed=14.8x    frame=14312 fps=356 q=-0.0 size=N/A time=00:09:56.92 bitrate=N/A speed=14.8x    frame=14512 fps=356 q=-0.0 size=N/A time=00:10:05.27 bitrate=N/A speed=14.8x    frame=14697 fps=356 q=-0.0 size=N/A time=00:10:12.98 bitrate=N/A speed=14.8x    frame=14866 fps=356 q=-0.0 size=N/A time=00:10:20.03 bitrate=N/A speed=14.8x    frame=15046 fps=355 q=-0.0 size=N/A time=00:10:27.54 bitrate=N/A speed=14.8x    frame=15201 fps=355 q=-0.0 size=N/A time=00:10:34.00 bitrate=N/A speed=14.8x    frame=15380 fps=355 q=-0.0 size=N/A time=00:10:41.47 bitrate=N/A speed=14.8x    frame=15579 fps=355 q=-0.0 size=N/A time=00:10:49.77 bitrate=N/A speed=14.8x    frame=15767 fps=355 q=-0.0 size=N/A time=00:10:57.61 bitrate=N/A speed=14.8x    frame=15954 fps=355 q=-0.0 size=N/A time=00:11:05.41 bitrate=N/A speed=14.8x    frame=16145 fps=356 q=-0.0 size=N/A time=00:11:13.38 bitrate=N/A speed=14.8x    frame=16341 fps=356 q=-0.0 size=N/A time=00:11:21.55 bitrate=N/A speed=14.8x    frame=16525 fps=356 q=-0.0 size=N/A time=00:11:29.23 bitrate=N/A speed=14.8x    frame=16725 fps=356 q=-0.0 size=N/A time=00:11:37.57 bitrate=N/A speed=14.9x    frame=16916 fps=356 q=-0.0 size=N/A time=00:11:45.53 bitrate=N/A speed=14.9x    frame=17100 fps=356 q=-0.0 size=N/A time=00:11:53.21 bitrate=N/A speed=14.9x    frame=17303 fps=357 q=-0.0 size=N/A time=00:12:01.67 bitrate=N/A speed=14.9x    frame=17493 fps=357 q=-0.0 size=N/A time=00:12:09.60 bitrate=N/A speed=14.9x    frame=17676 fps=357 q=-0.0 size=N/A time=00:12:17.23 bitrate=N/A speed=14.9x    frame=17870 fps=357 q=-0.0 size=N/A time=00:12:25.32 bitrate=N/A speed=14.9x    frame=18055 fps=357 q=-0.0 size=N/A time=00:12:33.04 bitrate=N/A speed=14.9x    frame=18240 fps=357 q=-0.0 size=N/A time=00:12:40.76 bitrate=N/A speed=14.9x    frame=18419 fps=357 q=-0.0 size=N/A time=00:12:48.22 bitrate=N/A speed=14.9x    frame=18608 fps=357 q=-0.0 size=N/A time=00:12:56.10 bitrate=N/A speed=14.9x    frame=18809 fps=357 q=-0.0 size=N/A time=00:13:04.49 bitrate=N/A speed=14.9x    frame=19001 fps=358 q=-0.0 size=N/A time=00:13:12.50 bitrate=N/A speed=14.9x    frame=19197 fps=358 q=-0.0 size=N/A time=00:13:20.67 bitrate=N/A speed=14.9x    frame=19392 fps=358 q=-0.0 size=N/A time=00:13:28.80 bitrate=N/A speed=14.9x    frame=19592 fps=358 q=-0.0 size=N/A time=00:13:37.14 bitrate=N/A speed=14.9x    frame=19785 fps=358 q=-0.0 size=N/A time=00:13:45.19 bitrate=N/A speed=14.9x    frame=19980 fps=358 q=-0.0 size=N/A time=00:13:53.33 bitrate=N/A speed=14.9x    frame=20175 fps=359 q=-0.0 size=N/A time=00:14:01.46 bitrate=N/A speed=  15x    frame=20362 fps=359 q=-0.0 size=N/A time=00:14:09.26 bitrate=N/A speed=  15x    frame=20552 fps=359 q=-0.0 size=N/A time=00:14:17.18 bitrate=N/A speed=  15x    frame=20737 fps=359 q=-0.0 size=N/A time=00:14:24.90 bitrate=N/A speed=  15x    frame=20935 fps=359 q=-0.0 size=N/A time=00:14:33.16 bitrate=N/A speed=  15x    frame=21129 fps=359 q=-0.0 size=N/A time=00:14:41.25 bitrate=N/A speed=  15x    frame=21312 fps=359 q=-0.0 size=N/A time=00:14:48.88 bitrate=N/A speed=  15x    frame=21511 fps=359 q=-0.0 size=N/A time=00:14:57.18 bitrate=N/A speed=  15x    frame=21704 fps=359 q=-0.0 size=N/A time=00:15:05.23 bitrate=N/A speed=  15x    frame=21905 fps=360 q=-0.0 size=N/A time=00:15:13.62 bitrate=N/A speed=  15x    frame=22097 fps=360 q=-0.0 size=N/A time=00:15:21.62 bitrate=N/A speed=  15x    frame=22285 fps=360 q=-0.0 size=N/A time=00:15:29.47 bitrate=N/A speed=  15x    frame=22484 fps=360 q=-0.0 size=N/A time=00:15:37.77 bitrate=N/A speed=  15x    frame=22670 fps=360 q=-0.0 size=N/A time=00:15:45.52 bitrate=N/A speed=  15x    frame=22862 fps=360 q=-0.0 size=N/A time=00:15:53.53 bitrate=N/A speed=  15x    frame=23051 fps=360 q=-0.0 size=N/A time=00:16:01.41 bitrate=N/A speed=  15x    frame=23242 fps=360 q=-0.0 size=N/A time=00:16:09.38 bitrate=N/A speed=  15x    frame=23440 fps=360 q=-0.0 size=N/A time=00:16:17.64 bitrate=N/A speed=  15x    frame=23642 fps=361 q=-0.0 size=N/A time=00:16:26.06 bitrate=N/A speed=  15x    frame=23834 fps=361 q=-0.0 size=N/A time=00:16:34.07 bitrate=N/A speed=  15x    frame=24027 fps=361 q=-0.0 size=N/A time=00:16:42.12 bitrate=N/A speed=15.1x    frame=24213 fps=361 q=-0.0 size=N/A time=00:16:49.88 bitrate=N/A speed=  15x    frame=24409 fps=361 q=-0.0 size=N/A time=00:16:58.05 bitrate=N/A speed=15.1x    frame=24603 fps=361 q=-0.0 size=N/A time=00:17:06.15 bitrate=N/A speed=15.1x    frame=24798 fps=361 q=-0.0 size=N/A time=00:17:14.28 bitrate=N/A speed=15.1x    frame=24993 fps=361 q=-0.0 size=N/A time=00:17:22.41 bitrate=N/A speed=15.1x    frame=25190 fps=361 q=-0.0 size=N/A time=00:17:30.63 bitrate=N/A speed=15.1x    frame=25381 fps=361 q=-0.0 size=N/A time=00:17:38.59 bitrate=N/A speed=15.1x    frame=25568 fps=362 q=-0.0 size=N/A time=00:17:46.39 bitrate=N/A speed=15.1x    frame=25754 fps=362 q=-0.0 size=N/A time=00:17:54.15 bitrate=N/A speed=15.1x    frame=25946 fps=362 q=-0.0 size=N/A time=00:18:02.16 bitrate=N/A speed=15.1x    frame=26141 fps=362 q=-0.0 size=N/A time=00:18:10.29 bitrate=N/A speed=15.1x    frame=26336 fps=362 q=-0.0 size=N/A time=00:18:18.43 bitrate=N/A speed=15.1x    frame=26533 fps=362 q=-0.0 size=N/A time=00:18:26.64 bitrate=N/A speed=15.1x    frame=26728 fps=362 q=-0.0 size=N/A time=00:18:34.78 bitrate=N/A speed=15.1x    frame=26917 fps=362 q=-0.0 size=N/A time=00:18:42.66 bitrate=N/A speed=15.1x    frame=27099 fps=362 q=-0.0 size=N/A time=00:18:50.25 bitrate=N/A speed=15.1x    frame=27272 fps=362 q=-0.0 size=N/A time=00:18:57.46 bitrate=N/A speed=15.1x    frame=27467 fps=362 q=-0.0 size=N/A time=00:19:05.60 bitrate=N/A speed=15.1x    frame=27652 fps=362 q=-0.0 size=N/A time=00:19:13.31 bitrate=N/A speed=15.1x    frame=27843 fps=362 q=-0.0 size=N/A time=00:19:21.28 bitrate=N/A speed=15.1x    frame=28033 fps=362 q=-0.0 size=N/A time=00:19:29.20 bitrate=N/A speed=15.1x    frame=28228 fps=362 q=-0.0 size=N/A time=00:19:37.34 bitrate=N/A speed=15.1x    frame=28417 fps=362 q=-0.0 size=N/A time=00:19:45.22 bitrate=N/A speed=15.1x    frame=28608 fps=362 q=-0.0 size=N/A time=00:19:53.19 bitrate=N/A speed=15.1x    frame=28789 fps=362 q=-0.0 size=N/A time=00:20:00.74 bitrate=N/A speed=15.1x    frame=28958 fps=362 q=-0.0 size=N/A time=00:20:07.78 bitrate=N/A speed=15.1x    frame=29136 fps=362 q=-0.0 size=N/A time=00:20:15.21 bitrate=N/A speed=15.1x    frame=29322 fps=362 q=-0.0 size=N/A time=00:20:22.97 bitrate=N/A speed=15.1x    frame=29497 fps=362 q=-0.0 size=N/A time=00:20:30.27 bitrate=N/A speed=15.1x    frame=29676 fps=362 q=-0.0 size=N/A time=00:20:37.73 bitrate=N/A speed=15.1x    frame=29855 fps=361 q=-0.0 size=N/A time=00:20:45.20 bitrate=N/A speed=15.1x    frame=30010 fps=361 q=-0.0 size=N/A time=00:20:51.66 bitrate=N/A speed=15.1x    frame=30194 fps=361 q=-0.0 size=N/A time=00:20:59.34 bitrate=N/A speed=15.1x    frame=30386 fps=361 q=-0.0 size=N/A time=00:21:07.34 bitrate=N/A speed=15.1x    frame=30580 fps=361 q=-0.0 size=N/A time=00:21:15.44 bitrate=N/A speed=15.1x    frame=30770 fps=361 q=-0.0 size=N/A time=00:21:23.36 bitrate=N/A speed=15.1x    frame=30961 fps=361 q=-0.0 size=N/A time=00:21:31.33 bitrate=N/A speed=15.1x    frame=31146 fps=361 q=-0.0 size=N/A time=00:21:39.04 bitrate=N/A speed=15.1x    frame=31335 fps=361 q=-0.0 size=N/A time=00:21:46.93 bitrate=N/A speed=15.1x    frame=31530 fps=361 q=-0.0 size=N/A time=00:21:55.06 bitrate=N/A speed=15.1x    frame=31711 fps=361 q=-0.0 size=N/A time=00:22:02.61 bitrate=N/A speed=15.1x    frame=31883 fps=361 q=-0.0 size=N/A time=00:22:09.78 bitrate=N/A speed=15.1x    frame=32064 fps=361 q=-0.0 size=N/A time=00:22:17.33 bitrate=N/A speed=15.1x    frame=32264 fps=361 q=-0.0 size=N/A time=00:22:25.67 bitrate=N/A speed=15.1x    frame=32456 fps=361 q=-0.0 size=N/A time=00:22:33.68 bitrate=N/A speed=15.1x    frame=32634 fps=361 q=-0.0 size=N/A time=00:22:41.10 bitrate=N/A speed=15.1x    frame=32787 fps=361 q=-0.0 size=N/A time=00:22:47.49 bitrate=N/A speed=15.1x    frame=32959 fps=361 q=-0.0 size=N/A time=00:22:54.66 bitrate=N/A speed=  15x    frame=33133 fps=361 q=-0.0 size=N/A time=00:23:01.92 bitrate=N/A speed=  15x    frame=33315 fps=361 q=-0.0 size=N/A time=00:23:09.51 bitrate=N/A speed=  15x    frame=33484 fps=360 q=-0.0 size=N/A time=00:23:16.56 bitrate=N/A speed=  15x    frame=33638 fps=360 q=-0.0 size=N/A time=00:23:22.98 bitrate=N/A speed=  15x    frame=33776 fps=360 q=-0.0 size=N/A time=00:23:28.74 bitrate=N/A speed=  15x    frame=33909 fps=359 q=-0.0 size=N/A time=00:23:34.28 bitrate=N/A speed=  15x    frame=34072 fps=359 q=-0.0 size=N/A time=00:23:41.08 bitrate=N/A speed=  15x    frame=34233 fps=358 q=-0.0 size=N/A time=00:23:47.80 bitrate=N/A speed=  15x    frame=34365 fps=358 q=-0.0 size=N/A time=00:23:53.30 bitrate=N/A speed=14.9x    frame=34509 fps=358 q=-0.0 size=N/A time=00:23:59.31 bitrate=N/A speed=14.9x    [Parsed_psnr_16 @ 0000020f28d7d540] PSNR y:48.986329 u:50.349934 v:50.396319 average:49.401245 min:37.982639 max:inf
[out#0/null @ 0000020f1b891d00] video:14903KiB audio:271276KiB subtitle:0KiB other streams:0KiB global headers:0KiB muxing overhead: unknown
frame=34683 fps=358 q=-0.0 Lsize=N/A time=00:24:06.57 bitrate=N/A speed=14.9x    
